<?xml version="1.0" encoding="UTF-8" standalone="no"?>
<svg
   xml:space="preserve"
   height="165.3004"
   width="165.96272"
   class="canvas"
   y="0px"
   x="0px"
   id="svg-editor-canvas"
   version="1.1"
   sodipodi:docname="roi-stat-ico.svg"
   inkscape:version="1.3 (0e150ed6c4, 2023-07-21)"
   xmlns:inkscape="http://www.inkscape.org/namespaces/inkscape"
   xmlns:sodipodi="http://sodipodi.sourceforge.net/DTD/sodipodi-0.dtd"
   xmlns="http://www.w3.org/2000/svg"
   xmlns:svg="http://www.w3.org/2000/svg"
   xmlns:rdf="http://www.w3.org/1999/02/22-rdf-syntax-ns#"
   xmlns:cc="http://creativecommons.org/ns#"
   xmlns:dc="http://purl.org/dc/elements/1.1/"><sodipodi:namedview
   pagecolor="#ffffff"
   bordercolor="#666666"
   borderopacity="1"
   objecttolerance="10"
   gridtolerance="10"
   guidetolerance="10"
   inkscape:pageopacity="0"
   inkscape:pageshadow="2"
   inkscape:window-width="1595"
   inkscape:window-height="891"
   id="namedview24"
   showgrid="false"
   inkscape:zoom="0.87407407"
   inkscape:cx="82.944916"
   inkscape:cy="134.42797"
   inkscape:window-x="2298"
   inkscape:window-y="223"
   inkscape:window-maximized="0"
   inkscape:current-layer="svg-engine"
   inkscape:showpageshadow="2"
   inkscape:pagecheckerboard="0"
   inkscape:deskcolor="#d1d1d1" /><metadata
   id="metadata23"><rdf:RDF><cc:Work
       rdf:about=""><dc:format>image/svg+xml</dc:format><dc:type
         rdf:resource="http://purl.org/dc/dcmitype/StillImage" /></cc:Work></rdf:RDF></metadata><defs
   id="defs21" />&#10;				<g
   style="stroke:#000000;stroke-width:0.3;stroke-miterlimit:4;stroke-dasharray:none;stroke-opacity:1"
   id="svg-engine"
   transform="translate(0.14894742,0.1501031)">&#10;				&#10;				 <g
   style="display:inline;stroke:#000000;stroke-width:0.3;stroke-miterlimit:4;stroke-dasharray:none;stroke-opacity:1"
   id="g7"
   class="ng-scope"
   ng-repeat="shape in logo.shapes | orderBy:'zindex'"> &#10;					&#10;					&#10;					&#10;					&#10;	&#10;					&#10;					<g
   style="display:inline;stroke:#000000;stroke-width:0.270269;stroke-miterlimit:4;stroke-dasharray:none;stroke-opacity:1"
   transform="scale(1.1100048)"
   ng-mouseout="mouseOutItem($event,shape)"
   ng-mouseover="mouseUpItem($event,shape)"
   ng-mousedown="mouseDownItem($event,shape)"
   id="shape-2"
   ng-attr-transform="translate({{(shape.symetrieX == 1 ? shape.x : shape.x + shape.width)}} {{(shape.symetrieY == 1 ? shape.y : shape.y + shape.height)}}) scale({{shape.width / shape.originalWidth * shape.symetrieX}} {{shape.height / shape.originalHeight * shape.symetrieY}}) rotate({{shape.rotate * shape.symetrieX * shape.symetrieY}} {{shape.originalWidth / 2}} {{shape.originalHeight / 2}})"
   ng-if="shape.type == 'logo' || shape.type == 'shape'"
   class="logo-item ng-scope"
   ng-right-click="rightClick($event)"
   ng-class="{'active': shape.selected, 'dragging': dragging}"
   ng-click="clickOnItem($event,shape)"
   type="container-logo">&#10;	&#10;						<g
   style="display:inline;stroke:#000000;stroke-width:0.270269;stroke-miterlimit:4;stroke-dasharray:none;stroke-opacity:1"
   id="g4"
   ng-click="skav($event, shape)"
   ng-shape=""
   ng-model="shape"
   class="svg-item ng-isolate-scope ng-pristine ng-valid"
   type="logo"><path
     style="clip-rule:evenodd;display:inline;fill:#121331;fill-opacity:1;fill-rule:evenodd;stroke:#000000;stroke-width:0.270269;stroke-miterlimit:4;stroke-dasharray:none;stroke-opacity:1"
     class="ng-scope"
     id="PATH_2_0"
     ng-click="mouseDown($event,0)"
     d="m 149.245,78.683 c -0.019,-1.149 -0.037,-2.305 -0.055,-3.466 -0.035,-2.325 -0.027,-4.68 -0.396,-7.027 C 147.82,58.771 145.12,49.095 140.333,40.273 135.631,31.417 128.999,23.415 121.09,16.98 113.134,10.598 103.917,5.821 94.297,3.009 L 90.671,2.045 88.864,1.57 C 88.252,1.427 87.602,1.35 86.972,1.251 85.704,1.064 84.44,0.878 83.18,0.693 81.931,0.524 80.619,0.283 79.521,0.287 78.376,0.235 77.235,0.184 76.097,0.134 L 74.394,0.057 73.544,0.02 72.866,0 72.415,0.021 C 70.006,0.156 67.612,0.214 65.254,0.428 55.797,1.346 46.94,4.211 39.258,8.101 31.545,11.987 25.094,17.08 19.935,22.414 c -5.157,5.34 -9.18,10.867 -11.885,16.192 -0.36,0.65 -0.715,1.29 -1.063,1.919 -0.295,0.658 -0.585,1.305 -0.87,1.939 -0.558,1.268 -1.095,2.49 -1.611,3.665 -0.872,2.414 -1.57,4.659 -2.236,6.658 -0.495,2.077 -0.918,3.919 -1.262,5.515 -0.37,1.59 -0.424,2.969 -0.602,4.073 C 0.141,64.595 0,65.779 0,65.779 c 0,0 0.351,-1.14 1.009,-3.276 0.355,-1.056 0.639,-2.423 1.259,-3.909 0.585,-1.48 1.258,-3.182 2.011,-5.088 0.922,-1.841 1.894,-3.89 3.04,-6.056 0.637,-1.05 1.298,-2.142 1.984,-3.274 0.338,-0.566 0.681,-1.143 1.029,-1.729 0.4,-0.554 0.806,-1.118 1.219,-1.691 0.827,-1.136 1.681,-2.309 2.56,-3.516 0.975,-1.126 1.979,-2.284 3.008,-3.473 0.979,-1.224 2.203,-2.286 3.342,-3.464 0.579,-0.578 1.166,-1.162 1.759,-1.754 0.62,-0.562 1.288,-1.087 1.938,-1.64 5.187,-4.438 11.431,-8.464 18.51,-11.543 7.105,-3.032 15.075,-4.931 23.385,-5.493 2.079,-0.102 4.185,-0.059 6.293,-0.105 l 0.375,-0.005 0.19,0.016 0.848,0.072 1.7,0.145 c 1.134,0.096 2.272,0.192 3.414,0.29 1.201,0.049 2.142,0.313 3.17,0.5 l 3.046,0.586 c 0.51,0.107 1.016,0.168 1.533,0.292 l 1.559,0.441 3.128,0.876 c 8.292,2.544 16.196,6.776 22.986,12.373 6.857,5.517 12.594,12.396 16.859,19.949 4.218,7.577 7.074,15.792 8.209,24.043 0.422,2.047 0.482,4.116 0.596,6.164 0.062,1.024 0.122,2.044 0.183,3.059 l 0.007,0.096 c 0.015,-0.317 0.003,-0.03 0.006,-0.074 l -0.004,0.203 -0.009,0.405 -0.015,0.81 -0.031,1.611 c -0.041,1.045 0.004,2.2 -0.107,3.138 -0.093,0.961 -0.185,1.917 -0.275,2.866 -0.098,1.891 -0.572,3.843 -0.857,5.737 -1.482,7.571 -4.098,14.524 -7.363,20.521 -3.279,5.992 -7.106,11.085 -10.975,15.177 -3.904,4.046 -7.625,7.381 -11.006,9.705 -1.634,1.254 -3.205,2.201 -4.559,3.068 -0.68,0.431 -1.31,0.829 -1.886,1.194 -0.6,0.324 -1.146,0.617 -1.634,0.881 -1.959,1.073 -3.004,1.646 -3.004,1.646 0,0 1.133,-0.375 3.258,-1.08 0.532,-0.181 1.127,-0.384 1.781,-0.606 0.637,-0.269 1.331,-0.562 2.082,-0.878 1.51,-0.627 3.253,-1.355 5.09,-2.398 3.789,-1.888 8.14,-4.715 12.717,-8.533 1.107,-0.993 2.314,-1.965 3.448,-3.075 1.119,-1.133 2.271,-2.299 3.452,-3.494 1.085,-1.291 2.197,-2.615 3.337,-3.971 1.065,-1.414 2.103,-2.906 3.192,-4.416 1.016,-1.555 1.975,-3.195 2.996,-4.849 0.92,-1.706 1.807,-3.477 2.729,-5.275 0.783,-1.855 1.593,-3.749 2.313,-5.709 0.61,-1.993 1.378,-3.987 1.877,-6.083 0.472,-2.114 1.113,-4.168 1.406,-6.456 0.179,-1.127 0.358,-2.261 0.539,-3.401 0.195,-1.162 0.211,-2.148 0.326,-3.24 l 0.139,-1.606 0.069,-0.807 0.034,-0.403 0.018,-0.203 0.013,-0.276 v -0.111 z"
     inkscape:connector-curvature="0" /><path
     style="clip-rule:evenodd;fill:#ca9700;fill-rule:evenodd;stroke:#000000;stroke-width:0.270269;stroke-miterlimit:4;stroke-dasharray:none;stroke-opacity:1"
     class="ng-scope"
     id="PATH_2_1"
     ng-click="mouseDown($event,1)"
     d="m 112.052,126.686 c 3.111,-3.651 5.63,-7.878 7.896,-12.266 0.558,-1.115 1.008,-2.356 1.529,-3.543 l 0.719,-1.817 c 0.252,-0.593 0.504,-1.204 0.647,-1.744 l 0.972,-3.309 0.485,-1.673 c 0.145,-0.54 0.055,-0.216 0.09,-0.378 l 0.019,-0.108 0.054,-0.233 0.09,-0.468 0.162,-0.935 c 2.015,-9.892 1.744,-20.539 -1.367,-30.395 -3.13,-9.802 -8.507,-18.938 -15.809,-25.988 l -2.733,-2.608 c -0.954,-0.827 -1.961,-1.583 -2.95,-2.355 -1.925,-1.601 -4.101,-2.842 -6.205,-4.155 -1.024,-0.701 -2.158,-1.204 -3.255,-1.744 -1.097,-0.54 -2.194,-1.079 -3.291,-1.619 -1.169,-0.467 -2.356,-0.898 -3.525,-1.33 l -1.763,-0.647 -0.881,-0.324 -0.81,-0.216 c -1.061,-0.27 -2.141,-0.539 -3.201,-0.827 L 77.342,27.59 76.91,27.5 76.694,27.446 76.262,27.375 75.399,27.23 c -1.169,-0.18 -2.319,-0.359 -3.453,-0.539 -1.15,-0.145 -2.319,-0.181 -3.453,-0.252 -2.284,-0.234 -4.55,-0.072 -6.78,-0.054 -1.115,0.035 -2.229,0.215 -3.327,0.306 -1.079,0.144 -2.176,0.18 -3.237,0.413 -8.579,1.421 -16.24,4.622 -22.517,8.651 -6.277,4.028 -11.133,8.92 -14.748,13.632 -0.863,1.224 -1.709,2.393 -2.519,3.525 -0.701,1.205 -1.384,2.374 -2.05,3.489 -0.684,1.115 -1.079,2.212 -1.601,3.237 -0.252,0.521 -0.485,1.025 -0.72,1.528 l -0.162,0.36 c -0.107,0.216 -0.125,0.27 -0.18,0.413 -0.107,0.252 -0.197,0.504 -0.306,0.756 -1.564,3.902 -2.284,7.14 -2.751,9.315 -0.433,2.177 -0.54,3.363 -0.54,3.363 0,0 0.342,-1.133 1.133,-3.201 0.773,-2.068 2.087,-5.035 4.083,-8.561 l 0.396,-0.665 c 0.054,-0.09 0.144,-0.271 0.18,-0.288 l 0.216,-0.342 c 0.306,-0.468 0.611,-0.936 0.918,-1.403 0.647,-0.917 1.24,-2.032 2.014,-2.932 0.737,-0.935 1.493,-1.906 2.284,-2.932 0.882,-0.952 1.78,-1.96 2.716,-2.984 3.885,-3.976 8.831,-7.842 14.748,-10.989 5.971,-3.058 12.949,-5.216 20.448,-6.007 0.936,-0.162 1.889,-0.108 2.842,-0.181 0.953,-0.018 1.906,-0.125 2.859,-0.071 1.942,0.126 3.885,0.09 5.828,0.432 0.971,0.144 1.96,0.233 2.931,0.414 0.972,0.197 1.942,0.396 2.932,0.611 l 1.241,0.251 1.582,0.468 c 1.044,0.324 2.104,0.647 3.148,0.972 l 0.791,0.233 0.665,0.288 1.349,0.594 c 0.899,0.377 1.799,0.755 2.698,1.133 0.917,0.504 1.816,0.989 2.716,1.475 0.917,0.504 1.853,0.953 2.68,1.583 1.709,1.187 3.489,2.266 5.036,3.687 0.791,0.684 1.654,1.295 2.428,1.996 l 2.248,2.23 c 6.025,5.936 10.377,13.633 12.877,21.78 0.378,1.007 0.576,2.05 0.827,3.093 0.234,1.044 0.504,2.068 0.702,3.13 l 0.413,3.165 0.216,1.583 c 0.036,0.539 0.036,1.061 0.054,1.6 l 0.108,3.184 c 0.036,1.062 -0.108,2.122 -0.144,3.184 -0.108,1.062 -0.055,2.122 -0.252,3.165 l -0.521,3.13 -0.126,0.791 -0.055,0.378 -0.035,0.197 v 0.055 l -0.019,0.054 v 0.018 l -0.396,1.493 -0.917,3.346 c -0.126,0.593 -0.306,1.043 -0.485,1.492 l -0.521,1.403 c -0.36,0.917 -0.648,1.853 -1.062,2.787 -1.763,3.741 -3.705,7.393 -6.241,10.575 -2.14,2.806 -4.496,5.378 -7.032,7.68 V 60.123 h -13.2 v 77.245 c -4.119,1.925 -8.31,3.327 -12.464,4.227 V 76.489 H 58.69 V 142.8 c -3.705,-0.144 -7.212,-0.629 -10.467,-1.241 -1.025,-0.216 -2.015,-0.468 -2.985,-0.737 V 94.978 H 32.055 v 40.574 c -2.41,-1.33 -4.298,-2.554 -5.647,-3.524 -1.582,-1.115 -2.481,-1.817 -2.697,-1.979 0.071,0.09 0.252,0.288 0.539,0.594 0.378,0.432 0.954,1.061 1.745,1.852 1.367,1.35 3.327,3.202 6.061,5.198 0.45,0.323 0.917,0.665 1.421,1.007 3.075,2.104 6.96,4.353 11.763,6.187 0.611,0.216 1.259,0.45 1.906,0.666 0.737,0.27 1.421,0.468 2.14,0.684 l 0.521,0.161 0.611,0.162 1.151,0.27 c 1.547,0.343 3.13,0.773 4.802,1.062 0.756,0.09 1.529,0.18 2.32,0.27 0.936,0.126 1.889,0.234 2.842,0.36 1.763,0.107 3.597,0.09 5.449,0.126 1.619,-0.036 3.256,-0.126 4.91,-0.307 4.064,-0.396 8.273,-1.24 12.464,-2.625 2.068,-0.684 4.118,-1.475 6.15,-2.41 2.393,-1.079 4.748,-2.338 7.05,-3.795 5.305,-3.348 10.288,-7.646 14.496,-12.825 z"
     inkscape:connector-curvature="0" /></g>&#10;					</g>&#10;				 </g>&#10;				 </g>&#10;             &#10;        </svg>
